<mxfile host="drawio-plugin" modified="2024-02-05T08:34:55.196Z" agent="5.0 (Windows NT 10.0; Win64; x64) AppleWebKit/537.36 (KHTML, like Gecko) Chrome/111.0.0.0 Safari/537.36" etag="RELFBuMcgSBSDnmXQtAy" version="20.5.3" type="embed"><diagram id="J-hNA5ClU3yTLYx-0fgb" name="Main"><mxGraphModel dx="2068" dy="651" grid="0" gridSize="10" guides="1" tooltips="1" connect="1" arrows="1" fold="1" page="1" pageScale="1" pageWidth="827" pageHeight="1169" background="#F1FAEE" math="0" shadow="0"><root><mxCell id="0"/><mxCell id="1" parent="0"/><mxCell id="76" value="" style="rounded=0;whiteSpace=wrap;html=1;fontStyle=1;fillColor=none;strokeWidth=2;dashed=1;strokeColor=#457B9D;fontColor=#1D3557;" parent="1" vertex="1"><mxGeometry x="-431" y="238" width="999" height="750" as="geometry"/></mxCell><mxCell id="17" value="" style="rounded=0;whiteSpace=wrap;html=1;fontStyle=1;fillColor=#f5f5f5;strokeWidth=2;dashed=1;strokeColor=#666666;fontColor=none;noLabel=1;" parent="1" vertex="1"><mxGeometry x="-287" y="295" width="791" height="480" as="geometry"/></mxCell><mxCell id="10" style="edgeStyle=none;html=1;entryX=0;entryY=0.5;entryDx=0;entryDy=0;strokeWidth=3;fillColor=#A8DADC;strokeColor=#457B9D;rounded=0;labelBackgroundColor=#F1FAEE;fontColor=#1D3557;" parent="1" edge="1"><mxGeometry relative="1" as="geometry"><mxPoint x="233" y="366" as="targetPoint"/><mxPoint x="92" y="492" as="sourcePoint"/><Array as="points"><mxPoint x="91" y="367"/></Array></mxGeometry></mxCell><mxCell id="68" style="edgeStyle=none;html=1;exitX=1;exitY=0.5;exitDx=0;exitDy=0;entryX=0;entryY=0.5;entryDx=0;entryDy=0;entryPerimeter=0;startArrow=none;startFill=0;endArrow=none;endFill=0;strokeWidth=1;shape=link;rounded=0;labelBackgroundColor=#F1FAEE;strokeColor=#457B9D;fontColor=#1D3557;" parent="1" source="3" target="6" edge="1"><mxGeometry relative="1" as="geometry"/></mxCell><mxCell id="117" value="&lt;font color=&quot;#ffffff&quot;&gt;gym&lt;/font&gt;" style="edgeLabel;html=1;align=center;verticalAlign=middle;resizable=0;points=[];fontSize=8;fontColor=none;" parent="68" vertex="1" connectable="0"><mxGeometry x="0.3542" y="-1" relative="1" as="geometry"><mxPoint as="offset"/></mxGeometry></mxCell><mxCell id="3" value="Fitness" style="rounded=0;whiteSpace=wrap;html=1;fillColor=#A8DADC;strokeColor=#FF0000;fontColor=#1D3557;" parent="1" vertex="1"><mxGeometry x="32" y="492.5" width="120" height="60" as="geometry"/></mxCell><mxCell id="120" style="edgeStyle=orthogonalEdgeStyle;rounded=0;orthogonalLoop=1;jettySize=auto;html=1;exitX=0.5;exitY=1;exitDx=0;exitDy=0;exitPerimeter=0;strokeColor=#0F0F0F;" parent="1" source="6" edge="1"><mxGeometry relative="1" as="geometry"><mxPoint x="-193" y="674" as="targetPoint"/></mxGeometry></mxCell><mxCell id="6" value="" style="shape=cylinder3;whiteSpace=wrap;html=1;boundedLbl=1;backgroundOutline=1;size=15;rounded=0;fillColor=#A8DADC;strokeColor=#457B9D;fontColor=#1D3557;" parent="1" vertex="1"><mxGeometry x="263" y="482.5" width="60" height="80" as="geometry"/></mxCell><mxCell id="60" style="edgeStyle=none;html=1;entryX=0;entryY=0.5;entryDx=0;entryDy=0;startArrow=none;startFill=0;endArrow=classic;endFill=1;strokeWidth=3;fillColor=#A8DADC;strokeColor=#457B9D;exitX=0.105;exitY=0.473;exitDx=0;exitDy=0;exitPerimeter=0;rounded=0;labelBackgroundColor=#F1FAEE;fontColor=#1D3557;" parent="1" source="17" target="3" edge="1"><mxGeometry relative="1" as="geometry"><mxPoint x="-178" y="514" as="sourcePoint"/></mxGeometry></mxCell><mxCell id="41" style="edgeStyle=none;html=1;startArrow=classic;startFill=1;strokeWidth=1;endArrow=none;endFill=0;exitX=0.5;exitY=0;exitDx=0;exitDy=0;entryX=0.576;entryY=0.998;entryDx=0;entryDy=0;entryPerimeter=0;rounded=0;labelBackgroundColor=#F1FAEE;strokeColor=#457B9D;fontColor=#1D3557;" parent="1" source="27" target="17" edge="1"><mxGeometry relative="1" as="geometry"><mxPoint x="130" y="833" as="sourcePoint"/><mxPoint x="193" y="753" as="targetPoint"/></mxGeometry></mxCell><mxCell id="43" value="Pull Environment &lt;br&gt;Configuration" style="edgeLabel;html=1;align=center;verticalAlign=middle;resizable=0;points=[];rounded=0;labelBackgroundColor=#F1FAEE;fontColor=#1D3557;" parent="41" vertex="1" connectable="0"><mxGeometry x="0.0238" y="-1" relative="1" as="geometry"><mxPoint as="offset"/></mxGeometry></mxCell><mxCell id="NRwvb_30eyufFlA1yozx-124" style="edgeStyle=none;html=1;exitX=0;exitY=0.5;exitDx=0;exitDy=0;fontSize=11;startArrow=none;startFill=0;endArrow=classic;endFill=1;strokeWidth=1;rounded=0;labelBackgroundColor=#F1FAEE;strokeColor=#457B9D;fontColor=#1D3557;" parent="1" source="27" target="100" edge="1"><mxGeometry relative="1" as="geometry"/></mxCell><mxCell id="27" value="config server" style="rounded=0;whiteSpace=wrap;html=1;fillColor=#A8DADC;strokeColor=#457B9D;fontColor=#1D3557;" parent="1" vertex="1"><mxGeometry x="108" y="849" width="120" height="60" as="geometry"/></mxCell><mxCell id="40" style="edgeStyle=none;html=1;exitX=0.5;exitY=0;exitDx=0;exitDy=0;entryX=0.829;entryY=1.004;entryDx=0;entryDy=0;entryPerimeter=0;startArrow=classic;startFill=1;strokeWidth=1;endArrow=none;endFill=0;exitPerimeter=0;rounded=0;labelBackgroundColor=#F1FAEE;strokeColor=#457B9D;fontColor=#1D3557;" parent="1" source="NRwvb_30eyufFlA1yozx-119" target="17" edge="1"><mxGeometry relative="1" as="geometry"><mxPoint x="369" y="854" as="sourcePoint"/></mxGeometry></mxCell><mxCell id="42" value="Distributed Tracing" style="edgeLabel;html=1;align=center;verticalAlign=middle;resizable=0;points=[];rounded=0;labelBackgroundColor=#F1FAEE;fontColor=#1D3557;" parent="40" vertex="1" connectable="0"><mxGeometry x="0.0184" relative="1" as="geometry"><mxPoint y="11" as="offset"/></mxGeometry></mxCell><mxCell id="NRwvb_30eyufFlA1yozx-117" value="Sleuth" style="edgeLabel;html=1;align=center;verticalAlign=middle;resizable=0;points=[];fontSize=11;rounded=0;labelBackgroundColor=#F1FAEE;fontColor=#1D3557;" parent="40" vertex="1" connectable="0"><mxGeometry x="-0.3677" y="2" relative="1" as="geometry"><mxPoint y="-24" as="offset"/></mxGeometry></mxCell><mxCell id="49" value="" style="shape=image;verticalLabelPosition=bottom;labelBackgroundColor=#F1FAEE;verticalAlign=top;aspect=fixed;imageAspect=0;image=data:image/png,iVBORw0KGgoAAAANSUhEUgAAAOEAAADhCAMAAAAJbSJIAAAAflBMVEX///8AAAClpaXc3Nzk5ORZWVnExMR/f38dHR1TU1NcXFywsLDLy8tra2urq6tVVVXV1dXy8vLs7Oz5+fmPj4+GhoY2NjYfHx9FRUXg4ODr6+tKSkq3t7fQ0NCgoKCZmZkMDAw+Pj4mJiZzc3MtLS1jY2OUlJQVFRWCgoIyMjLRarMBAAAFaklEQVR4nO2cf1MaMRCG04ooimht/UmrYmu13/8LdpYQD0657OY2yW5mn/8ywM29fWbfEMA6ZxiGYRiGYRiGYRiGYRhGRg4evmrj4YCU8NsXfXyjSXysfb9kHmkBnat9w2SoAd3f2ndMhKzQfa99y0S+kxMqk0hXqK1OExTqqtOHlICq6jQtoKJJTJlCQE2dPiVNoSaJiVPo9NRpskItEtMVapnEEQGd+1H77hGMUahiEl9HTKEOieMUKpCYvhcGpNfpWIXy63R0QOmTOF6h8El8ZQgoW+JXloSCJY7dCwNyJfIolFynTAGdu6qdZA9cCsVOIk+RemROIp9CoRI5FcqUuGBNKLFOWQNKrFPOKQTETeIxc8AkiatF+I59cQ3rH+/fua/H+rr3MA3eKQQSJJ50rz6H9d378g6W593DJ+Rr8ytMkXjYvXgG6+7HEgewnHUPH5Kvza8wRWLOhBkCOvcmKGEOhQkS8yW8yRKQPon5EuZR6NyllIQ5itRDlJgtYS6F5EnMljBbQOeOSDeyteOvI0zel5PePwBtx8+nUMi701xF6iHviRk4zZqQWqcZyKtQwjkxr0IBk/iUOSCpTm/n0w3zFawXYTldwHLVPXyLv2huhaRJ3Not1vshx/nwOXtAisR+Qo4dP79C5+5rJiyhkLAnZkhYQiGhTvkTPhUJiJ9E/oRlFOLrlD1hmSkEkBLZE5ZSiK7TyH5ITlhOIbZOZ5eTDZdLWE/DcjKF5bJ7eIa63s+CCau8O+X9vjDG7woJy00hgH9jw8afogGpn9hwUHIKAYzEp5vjDTfr9XFY3xyv193Dr/GLlVaIkvjSPXv97Vrvs7atDwV/xi9WWiHqjU1kx99KeBq9Vtki9cTrlDNheYWYSWRMWH4KgahExoQ1FIa6KJKwjsJ4nfIlrKMwPolsCfN9XxgjMolsCWspjErs/54mdcf/VzBSn2GJf66ONlw9w/rsbbN8O1s/Hh49ehs+AddTiKhTDmoVqafEObGmwiLnxNzfF8Y4y56wrkLaJJ6cBQi/TLiuHJA0if3dAkVthaSb7e/4GGruhQG8xJSE04rJAvg6TUhY8mPu/aDrNCFh/SkE0JNIT1i/SD3YSaQnlDCFAFYiOaEUhWiJ5IRSFKIlUnf8uoeKXXB1ujwMLFHPl6Mw0zlxVTvVDjmOGJIUbr6Y50VOkXr4D/uyFGaYRElF6nlhTihNIfskyipSD2+dylPILFGiQl6JEhWy1qmET2c+g/73yvuQqZBxEmVOIcC1J0pVSPmQcBC5CrnqdF47xgAskyjtULELR53KnUKAYRJva2eIML5OZStkkChd4XiJkovUM1Ki5L0wQP+fWLaRPoXAKInL2nePYsyeKH8KgRES5RepJ71OdSgcIVFDkXrOG1eYLFFHkXrS6lSPwkSJmhSm1emv2jdNIkGilr0wgPvL3m00TSFwQQ2oawoB6hFD1xQCRIn6FFL3xIvat5sASaK2IvVQ6lRbkXoIEmfxq4kEf8TQV6QetEStCvF7osYi9SAlatwLA7jfkWqdQgAl8Tx+HcFg9kTNClES9RapJ16neovUE5WoXaFzsf+aVPcUAr+GA+ouUs9wnWqfQmBQYgsKh48YB/GXK2BAov4i9eyvU/1F6tkr8TD+WiXsO2K0UKSePRLbUbhvT2yjSD2fSmxjLwysmp5CYP4x4En8Var4WKdtKfxEYmsKP0q8i79EGT2JLe2Fgd06bW0KgR2J7U0hsH3EaOntTMe8dYXbddpekXrmrSvs6rTFIvVsJL7En6mW24aL1DNvXaGXOIk/TTHzlovUc930FALTFg8Vu9zXvgHDMAzDMAzDMAzDMAzDMNL4D8T3Yukd99zJAAAAAElFTkSuQmCC;rounded=0;fillColor=#A8DADC;strokeColor=#457B9D;fontColor=#1D3557;" parent="1" vertex="1"><mxGeometry x="121" y="917.98" width="45" height="45" as="geometry"/></mxCell><mxCell id="50" value="" style="shape=image;verticalLabelPosition=bottom;labelBackgroundColor=#F1FAEE;verticalAlign=top;aspect=fixed;imageAspect=0;image=https://upload.wikimedia.org/wikipedia/commons/thumb/9/91/Octicons-mark-github.svg/2048px-Octicons-mark-github.svg.png;rounded=0;fillColor=#A8DADC;strokeColor=#457B9D;fontColor=#1D3557;" parent="1" vertex="1"><mxGeometry x="183" y="924" width="35" height="35" as="geometry"/></mxCell><mxCell id="55" value="" style="shape=image;verticalLabelPosition=bottom;labelBackgroundColor=#F1FAEE;verticalAlign=top;aspect=fixed;imageAspect=0;image=https://upload.wikimedia.org/wikipedia/commons/thumb/2/29/Postgresql_elephant.svg/1200px-Postgresql_elephant.svg.png;rounded=0;fillColor=#A8DADC;strokeColor=#457B9D;fontColor=#1D3557;" parent="1" vertex="1"><mxGeometry x="281" y="517" width="29.07" height="30" as="geometry"/></mxCell><mxCell id="64" style="edgeStyle=none;html=1;entryX=0;entryY=0.5;entryDx=0;entryDy=0;startArrow=none;startFill=0;endArrow=classic;endFill=1;strokeWidth=3;fillColor=#A8DADC;strokeColor=#457B9D;rounded=0;labelBackgroundColor=#F1FAEE;fontColor=#1D3557;" parent="1" source="62" target="73" edge="1"><mxGeometry relative="1" as="geometry"><mxPoint x="-480" y="513" as="targetPoint"/></mxGeometry></mxCell><mxCell id="62" value="" style="outlineConnect=0;dashed=0;verticalLabelPosition=bottom;verticalAlign=top;align=center;html=1;shape=mxgraph.aws3.internet_3;fillColor=#A8DADC;strokeColor=#457B9D;strokeWidth=2;rounded=0;fontColor=#1D3557;" parent="1" vertex="1"><mxGeometry x="-662" y="495.5" width="79.5" height="54" as="geometry"/></mxCell><mxCell id="73" value="" style="ellipse;whiteSpace=wrap;html=1;aspect=fixed;strokeWidth=0;strokeColor=none;rounded=0;fillColor=#A8DADC;fontColor=#1D3557;" parent="1" vertex="1"><mxGeometry x="-475" y="484" width="77.75" height="77.75" as="geometry"/></mxCell><mxCell id="72" value="" style="outlineConnect=0;dashed=0;verticalLabelPosition=bottom;verticalAlign=top;align=center;html=1;fontSize=12;fontStyle=0;aspect=fixed;pointerEvents=1;shape=mxgraph.aws4.network_load_balancer;fillColor=#008a00;strokeColor=#005700;fontColor=#ffffff;rounded=0;" parent="1" vertex="1"><mxGeometry x="-473.5" y="485.5" width="74" height="74" as="geometry"/></mxCell><mxCell id="74" value="Public &lt;br&gt;Network" style="text;html=1;align=center;verticalAlign=middle;resizable=0;points=[];autosize=1;strokeColor=none;rounded=0;fontColor=#1D3557;" parent="1" vertex="1"><mxGeometry x="-534" y="388" width="54" height="32" as="geometry"/></mxCell><mxCell id="75" value="Private&lt;br&gt;Network" style="text;html=1;align=center;verticalAlign=middle;resizable=0;points=[];autosize=1;strokeColor=none;rounded=0;fontColor=#1D3557;" parent="1" vertex="1"><mxGeometry x="-402" y="307" width="54" height="32" as="geometry"/></mxCell><mxCell id="97" style="edgeStyle=none;html=1;entryX=0.111;entryY=0.998;entryDx=0;entryDy=0;entryPerimeter=0;startArrow=classic;startFill=1;endArrow=none;endFill=0;strokeWidth=1;rounded=0;labelBackgroundColor=#F1FAEE;strokeColor=#457B9D;fontColor=#1D3557;" parent="1" source="95" target="17" edge="1"><mxGeometry relative="1" as="geometry"/></mxCell><mxCell id="98" value="Pull Images" style="edgeLabel;html=1;align=center;verticalAlign=middle;resizable=0;points=[];rounded=0;labelBackgroundColor=#F1FAEE;fontColor=#1D3557;" parent="97" vertex="1" connectable="0"><mxGeometry x="0.2059" relative="1" as="geometry"><mxPoint x="-1" y="9" as="offset"/></mxGeometry></mxCell><mxCell id="95" value="Private Docker Registry" style="rounded=0;whiteSpace=wrap;html=1;fillColor=#A8DADC;strokeColor=#457B9D;fontColor=#1D3557;" parent="1" vertex="1"><mxGeometry x="-259" y="846.02" width="120" height="60" as="geometry"/></mxCell><mxCell id="99" value="" style="aspect=fixed;html=1;points=[];align=center;image;fontSize=12;image=img/lib/mscae/Docker.svg;strokeColor=#457B9D;strokeWidth=0;fillColor=none;rounded=0;labelBackgroundColor=#F1FAEE;fontColor=#1D3557;" parent="1" vertex="1"><mxGeometry x="-226.42000000000002" y="915.98" width="54.85" height="44.98" as="geometry"/></mxCell><mxCell id="100" value="Eureka Server" style="rounded=0;whiteSpace=wrap;html=1;fillColor=#A8DADC;strokeColor=#457B9D;fontColor=#1D3557;" parent="1" vertex="1"><mxGeometry x="-84" y="849" width="120" height="60" as="geometry"/></mxCell><mxCell id="101" style="edgeStyle=none;html=1;startArrow=classic;startFill=1;endArrow=none;endFill=0;strokeWidth=1;entryX=0.332;entryY=1.002;entryDx=0;entryDy=0;entryPerimeter=0;exitX=0.5;exitY=0;exitDx=0;exitDy=0;rounded=0;labelBackgroundColor=#F1FAEE;strokeColor=#457B9D;fontColor=#1D3557;" parent="1" source="100" target="17" edge="1"><mxGeometry relative="1" as="geometry"><mxPoint x="-39" y="848" as="sourcePoint"/><mxPoint x="-36" y="754" as="targetPoint"/></mxGeometry></mxCell><mxCell id="102" value="Microservices Register &lt;br&gt;As A Client" style="edgeLabel;html=1;align=center;verticalAlign=middle;resizable=0;points=[];rounded=0;labelBackgroundColor=#F1FAEE;fontColor=#1D3557;" parent="101" vertex="1" connectable="0"><mxGeometry x="0.2059" relative="1" as="geometry"><mxPoint x="-1" y="9" as="offset"/></mxGeometry></mxCell><mxCell id="NRwvb_30eyufFlA1yozx-119" value="" style="shape=cylinder3;whiteSpace=wrap;html=1;boundedLbl=1;backgroundOutline=1;size=15;rounded=0;fillColor=#A8DADC;strokeColor=#457B9D;fontColor=#1D3557;" parent="1" vertex="1"><mxGeometry x="328" y="843" width="82.93" height="81" as="geometry"/></mxCell><mxCell id="107" value="&lt;h3 style=&quot;border: 0px solid rgb(217, 217, 227); box-sizing: border-box; --tw-border-spacing-x: 0; --tw-border-spacing-y: 0; --tw-translate-x: 0; --tw-translate-y: 0; --tw-rotate: 0; --tw-skew-x: 0; --tw-skew-y: 0; --tw-scale-x: 1; --tw-scale-y: 1; --tw-pan-x: ; --tw-pan-y: ; --tw-pinch-zoom: ; --tw-scroll-snap-strictness: proximity; --tw-gradient-from-position: ; --tw-gradient-via-position: ; --tw-gradient-to-position: ; --tw-ordinal: ; --tw-slashed-zero: ; --tw-numeric-figure: ; --tw-numeric-spacing: ; --tw-numeric-fraction: ; --tw-ring-inset: ; --tw-ring-offset-width: 0px; --tw-ring-offset-color: #fff; --tw-ring-color: rgba(69,89,164,0.5); --tw-ring-offset-shadow: 0 0 transparent; --tw-ring-shadow: 0 0 transparent; --tw-shadow: 0 0 transparent; --tw-shadow-colored: 0 0 transparent; --tw-blur: ; --tw-brightness: ; --tw-contrast: ; --tw-grayscale: ; --tw-hue-rotate: ; --tw-invert: ; --tw-saturate: ; --tw-sepia: ; --tw-drop-shadow: ; --tw-backdrop-blur: ; --tw-backdrop-brightness: ; --tw-backdrop-contrast: ; --tw-backdrop-grayscale: ; --tw-backdrop-hue-rotate: ; --tw-backdrop-invert: ; --tw-backdrop-opacity: ; --tw-backdrop-saturate: ; --tw-backdrop-sepia: ; font-size: 1.25em; margin: 1rem 0px 0.5rem; line-height: 1.6; font-family: Söhne, ui-sans-serif, system-ui, -apple-system, &amp;quot;Segoe UI&amp;quot;, Roboto, Ubuntu, Cantarell, &amp;quot;Noto Sans&amp;quot;, sans-serif, &amp;quot;Helvetica Neue&amp;quot;, Arial, &amp;quot;Apple Color Emoji&amp;quot;, &amp;quot;Segoe UI Emoji&amp;quot;, &amp;quot;Segoe UI Symbol&amp;quot;, &amp;quot;Noto Color Emoji&amp;quot;; text-align: start;&quot;&gt;Workload&lt;/h3&gt;" style="rounded=0;whiteSpace=wrap;html=1;fillColor=#60a917;strokeColor=#2D7600;fontColor=default;labelBackgroundColor=none;" parent="1" vertex="1"><mxGeometry x="233" y="334" width="114" height="60" as="geometry"/></mxCell><mxCell id="110" value="Load Balancer" style="text;html=1;align=center;verticalAlign=middle;resizable=0;points=[];autosize=1;strokeColor=none;rounded=0;fontColor=#1D3557;" parent="1" vertex="1"><mxGeometry x="-480" y="465.5" width="87" height="18" as="geometry"/></mxCell><mxCell id="NRwvb_30eyufFlA1yozx-122" value="" style="shape=image;verticalLabelPosition=bottom;labelBackgroundColor=#F1FAEE;verticalAlign=top;aspect=fixed;imageAspect=0;image=data:image/png,iVBORw0KGgoAAAANSUhEUgAAAMgAAADICAYAAACtWK6eAAAkv0lEQVR4nOydCXhTVdrHj03S5KZZ2mxNSko32kIr0FLAAiMtKIzbJ6hUHFxwgdECagEriyiLbMouZVFAKY6MCJ8fzowyoyNQR21dSkFpxYJATWnapEmTNMvNcsv3RFKnYu7N0pPcpD2/5+nz0JyT97yk+d9zzz3veV/m1atXAQKB8E4M3Q4gEJEMEggCQQESCAJBARIIAkEBEggCQQESCAJBARIIAkEBEggCQcXVq1fD+lNUVET3fzliKZTz+IfuyJxPtx+RzPLly8P6fUUzSIQgZDPAnskZb5RkS1ZOyxQPotsfxDWQQCKEGdmS23LF3AcAAPz37sr6ixRj3kC3TwgkkIhAijGZa8YNXNPjpZuWjB4wk0aXEB6QQCKAo3cPfi6ewxzR87WyEUkvK3mxbPq8QgAkEPqZkpEwZEwSf7mXJuWxe4dso8ElRA+QQGhm9diBLwMAON7acsXcJ0uHJY4Lv1eIbpBAaGT7hLQ7ciXce6j6rBk3cB1asNMHEghN5Igwwdw8eaWvv0E8h3lzxcT02eHzDNETJBCaqJiYtgQAIPGnb0mWeEORUpASeq8Q14MEQgPTMsVpxcnCsgDeIqiYkOZtIY8IMUggYUbIZrAqJqa9Q7YwJyNXwn0ILdjDDxJImFkzNnmmjMsaE8RbWTtuSX8nR4ShvZEwggQSRnJEmHBOnuLFXphIWT0uGQUzhhEkkDBy7N4hmwEAA3tjY+og8ZJCOU8KzysEFUggYeKZfHlxMp/9GARTgqNTBlcK2Qz0twsD6EMOA0peLFg6WrkeAABlw0/GZd3+bL7iXhi2ENQggYSBTUWpT8u4rJtg2izLV6xCC/bQgwQSYqZlilJKssQbYduN5zCH7JmUsQK2XcRvQQIJMUtHK1cDAGJDYXtMEn/hzBxpfihsI66BBBJCyvIVN+fJ4h4K4RCsV25OWRtC+/0eJJAQMVzKFW4uTq0M9TgyLuu27RPS7g/1OP0VJJAQsXTUgDIAQFo4xpqbJ99TpBSIwzFWfwMJJARMyxSnlmRLwrnjLVheqHwpjOP1G5BAICPFmGBTUYr71koYznGLk4WlZfmKIeEcsz+ABAKZ0uHyB5P57PE0DM1aPHrAwRQBG+2NQAQJBCJKXixrxZjkNXSNL+Oy8soLFOj0IUSQQCBy7N4hmwAAtJ78m5OnWIoW7PBAAoFE6bDEm3LF3Kfp9gMAoDhw26AddDvRV0ACgYB7YV4+Mmkd3X50k8xnT3+pUDmZbj/6AkggEKiYmP54qpAzgW4/ejJnuHy9kheSCJd+BRJILylSCpJLssSb6fbjemRcVv6motTn6fYj2kEC6SUVE9JeCveeh7+UZInXTMsUoVIKvQAJpBeUDksszJVwH6HbDwqYr6Jgxl6BBBIkUozJ3nFL+kGYoeyqTvsRAMA5WPbcpAo5JRvHp9wK02Z/AgkkSF6/NR12MKL6kX9eKF1RrVoM0eYvLChIemu4lJsA225/AAkkCArlPMnUQeKlMG3uPK1eV9Vsal9V0/yBqtP+d5i2AQDKpaMGPAfZZr8ACSRAhGzGDUenDK4EAAhg2dRYnWc21Kr3dP/+yD8v/Nn9Miz7bkqyJU+j2oeBgwQSIM/mK+6VcVl3QDTpWv/1lRlNJjve/UJVs6n18I/tr0IcA3hqH76NSikEBhJIAOSIMHZZvmIVTJsnVcZdW+vUDde//vznP+/SWJ31MMdy3x0uGT0gkp+6RRxIIAGwZ1LGingOMweiSdPKmmavgmsy2a3umQUAQEAcD9U+DBAkED+ZmSPNH5PEXwjT5o7TrbPdC3Oy9q116u9OqoxvwBwTAJB87N4hWyHb7LMggfiJJ3sIC5Y9jdX5z6dPXHrPV7+VNc3LAQBmWOOCa7UPnyodljgWps2+ChKIH2yfkDZdxmXdBtGkc9F/mvx6TFzVbNIebtQ9CXHsX0C1D/0DCcQHRUqBZG6efA9Mm9UtnZsqG7R1/vaf/mHjQY3V+TFMH+I5zPEVE9NnwbTZF0EC8cHyQqX7FocPy54BdzXM/uSngFOGemYcFyw/wLVgxo2o9iE1SCAUlOUrcouThU/BtLm1Tv1Sg95mD/R9lQ3a2uqWTthh9QJPNDKCBCQQElIEbM7i0QMOAgCYsGxqrM5j2+rU/xfs+2d/8tNyA+76AZY/4Frtw4fRgp0cJBASygsUT8q4rGEQTZqmfnDuEaOd6ArWQIPehm+tU/emhJs3UO1DCpBAvFCkFEjn5CmgRtUevaBbV9NqJt3z8Jdtder3NVbnR3C8+pVUVPvQO0ggXjhw26BdAAA5RJOXl32h2gLDkNFOXJ36wbmZ7n/CsNeNp/ahBKbNvgASyHW8VKi8I5nPvg+iSefcTy8+GMzCnAz3THT0gg72ScHu2odob6QHSCA9UPJib5gzXL4eps36duvbu75r+xKmTTdP/vviNgDARZg2ZVzWHaj24W9BAunBgdsGvSDjsoZCNGmad+ISZfRvkVJAuseSI8JiUwRsjrc2rc1ln/vpxRkAAAcMR7tBtQ9/CxKIh2mZosHFyUKoNf8ON+qeq2o2NZG1l+UrxhUrBaSPWHPEXG55gYI0PH3Xd21f1bdboRbpiecwc/ZMylgO02Y0gwTi4dWbU9YBABiw7F024p/NO35xL1m7e2bYXJz6BgDgKpWdGYOlz+eIMK+ziBvPDGXorb89GZPEf25mjjQPps1oBQkEALBxfMpdqULOVJg2N3zbskRrc5F++csLFA+7Jwlf5z3iOcyMPZMySB85VzWbmjfXtpT11t/rQLUPPfR7gQyXciULCpKgnrmo11l3US3M3ff47pnBX3tjkviLipSCDLL2V765UnnZiH8ajK9kyLis27dPSCuBaTMa6fcC2VKUuggAoIBoUnX7+z9QXtH3TMpYFM9hBpJAgVMxIY1UUFqbyz1jQU8XhGof9nOBTMsUDylOFpbCtLn1VMuyZrOD9MlSkVKQPiaJ/+uX+bTW4teR2lwJ92G3v2Ttu75r+7ZeZ4UdzChcXqiEHdoSVfRbgUgxZsx7d2W9AwCIg2VT1WmvXvf1lbep+lRMSCsHAGDdvxvsBOUivQfYpqKUN6QYeezk7e//4J4NfwrAZZ8UJwvnlOUrBsO0GU30W4EsGT1gFgAgH6JJ08KqpoepFubTMsWDcyXcmcEOkMxn/6F0uJz0YUKz2eFaUa16IVj7JPTr2of9UiCFch63bETSSpg2D//Yvv3IeR3p1dtT/fb1nrOHh4Cie+cMly+jat91pvWQqtMOe8GeX16g6JenD/udQIRsBtgzOQN2MKJq7TdXNlF1KB0uv5uk+q2/t1i/IOOyCg7dmfU4Wbt7wb6wqukxAIA+ELu+mJOnWJojwvrdgr3fCWRGtmRirhhuyYLNtS2PndFaO6j6+LryB0JJlnhLjgiLJ2s/cl6nOvxjO6VggyDp2L1DKiDbjHj6lUDcC/M14wZC3QA7rbEceu6zJspbmkN3Zs2UcVmjSJoDmkE8CComplHm6Hr+859fAwCcD8I2Kcl89gP9rfZhvxJIxcT0Z+M5zJsgmnSt/bqZclGcI8KEJVnibRRdgsqcWJwsfLZQziMtadBkspsXnLz8cKBrHF/0t9qH/UYgUzISMkuyxKth2jzcqFty5Lye8rHq6nHJC0JUoo2/Z3LGDveaioytdeqvTmss+2EO6ql9WA7TZiTTbwSyeuzAVQAALix7Gqvz1MKqyxup+hTKefFTB4lhx0n9Sq6Y+6cZ2ZIxVH3mV11+EQBggzluSZZ47bRMEWnoS1+iXwjkpULlrbkSLtS4op1nWhc3m6mPYuyZnLHdjzoivcp1VT4yiXLxX9VsajncqHumN2N4gbl0tLJfBDP2eYHkiLC4FWOS34YZyq7qtB9cVdP8CVWf0mGJN+WKuQ/BGpOMVCHnDl81CKd/2LhXY3V+BnPcPFnc/RvHp9wC02Yk0ucFUjExbRHkPY8rt7//w9O+OpWPTApbDNOCgqRdKQI25e3j2q+bF8NesPeH2od9WiDTMsXK4mQh1Np8O0+r1zbobZSbcBvHp0xMFXLu9NMkjC/toPICBenmoZvX6lqrq1s6d0AYqyfJS0cNgFoSItLoswIRshnMiolp73gJ7QgajdVZu6FWvY+qT4qAjS0oSNodgFkoV/U5eYrn3LeTVH1mf/LTEgPuugBjvG48tQ/77IK9zwpkzdjkGTIuy1toR7A413995cEmk50yfU95geIxAEAmxHH9JWXPpAzKBXuD3mY5eE4L9dw9AECwqSilz9Y+7JMCyRFhvBmDpVATD5xUGXdsrVP/6GNc7pw8RaB7BMHspHtlTBJ//pSMhGyqPi98qXpXY3UehzUmuLbDPmbJ6AEPw7QZKfRJgRy7d8ir8RxmOkSThnnHqdP3gGsnBV8AAKQGaBtmDUL26rEDF1F1MNoJYt7xSw8BACwQxwVlI5JWK3mxfW6Lvc8J5Jl8+bhkPhtmRaarO063zmrQ2yiDEadkJGTBrmEYDLkS7oxpmWLKpNtHzuvURy/oYJeZ7pO1D/ucQJaOVq6H+f/SWJ0fPX3i0v/66ue5ckfCoSL2e3dl7fW1Jlj2hWoDAKAZ5sC5Ym5p6bBEyp39aKNPCeTQnVl/lnFZf4Bo0rnoP00+T+hNyxTfmCvhPhjkGFCrRnkYVTpcPo2qQ4PeZltRrXoI9vjlI5PW96UFe58RSJFSMMBH1GzAVLd0vlLZoD1D1UeKMYH7ih0hs8evzBkuX+Yr6nZVTXNVfbv1IMxxU4Wc8RUT05+AaZNO+oxAthSlvgwAIM1AGCgG3HV26t/OveyrX+lw+X0AAJgh9FCQcVnDNhWl+szYMu/EpRUAgE6YY/el2od9QiBl+Yqb8mRxQSdD8MbWOvWLWpuLMhrRfYWGcFIQavhHT0qyxBt8HZOtajZdOtyoo3zyFQTCiglpfSJdUNQLJEXA5m0uTn0b8sL879vq1B/46repKPVJGZfV2xy2IRMIACCuYmKaz32Zeccv7jbgrs9hDuypfRj1C/aoF8irfxj4DOSda8PUD849avSRr8p9ZS7JEsM+9w2d4mThvEI5T0rVR2tzXX3hi59hZ2aM3XFL+jtSjBlRa7NAiWqBTMsUK0uyJVD3Ho5e0K2taTX7zAjiORMOI+kctJ10EuL2TM7YRXXyEFzLzPhFvc4aSAyZP6S9fmt6yA6MhYOoFYgnz9RbAAARRLMXPZWbKCmU88TFyUKfIe9+AnMn3Su5Yu59M7IlPuPSPDmFVTDHjvbah1ErkNLh8pJkPpvyoFCAOOZ+enGGr4W5m5+MuH5FtephjdUJ9b49FBhw1+mdp1tnfnTZ8JWvvs1mh33rqRZo6Yk8CI9OGbw/WmsfRqVAlLxYxooxyetg2qxvt1bu+q7N55cIeO7ZV9U0H5W//u3NK6tVdwEALsH0BRItW2pbHsneX1cw78SlA76ikLtZ9/WVt1Wd9i9gOiLjsu58Nl9xD0yb4SIqBXLgtkHrAQAwzyAY5p245HPPwxsra5o/TNz9TdaKatWjGqvz+yBMQN3JNuCuCztPtz6Ttu/U4IWfNb2ttbkCekrmFv/CqqZHYJeZLstXvByNC/aoE0jpsMQRsE8Juq+2OWJMFuybtTaXa1VNc+XId74bdrixfSYAoB2ue37RUd3SOT97f13uvBOXtjeZ7EFv/h05r7tY3279K0zn4jnMnKN3D34Jps1wEFUCcS/My0cmQS3T7CFnx8T0r1qfHPnxS4XKe6QYM6jPpdnsANM/PH/gxsrTA/fXa54BAFyG7+rvaDncqFs24XB91rhDZ7f6s4YiI0eEcTcXpT7R+uTIL3Ml3KfguvnLeZXyaKt9GFUCWTRqwIOpQs6kEJlnyLisSSvGJL/f9tSo88sLlSXBZhBs0Ntsj3/80/aBe2ozDje2L/Rx9iLYp1i26pbONTdWns6e/mHjmqpmU9CzVqGChx26M/OFszPz1GUjFHtlXFaoNvhYr9ycsiZEtkNC1AikSClIWlCQ9FqYhktfPib5vZ9nFzS8OTnj6RwR5iu3lVeazY6u6R+e33y4UUf1pQhqH+SkyvjGuENnlzXobeZg3i9kM8C0THH+8Wk5FV8+MFRdkiVZ7UcOr14j47Lu2D4hjTLSOJKIGoFUTEhbBnnPwx+GPJore+3szLwrh+7MXKrkxQa7yORB9gv0ZoOxbITiph8fzf/3e3dlnSpOFs4NUWpUUubmyffmiLBw/y2DIioEUjossSBXwqVMaxNieCVZkjU/zy5oOT4t59VpmeJAj/PyKdpCvZP+CykCNr9iQtrj+tJRX2wuSq2RcVl0Jn0TVkyMjmDGiBeIFGOydtySfjBCzluIipOF5e/dlXXh+0eGVxYqeAP8fB/VrUtId9JzRBj/i+k3Lr70xIiLc/Lk++I5zLGhHM9f3DNXNNQ+jHiBvHJzSikAIItuP67jhlwx95EvHxh66eLj+QdLhyeOp9opLlIKqGaQkDAzR5p3fFrO9rMz8y6NSeKvAwBEWrhHzBNDZVCPKISCiBfIxm9bDla3dG4DAOB0++IFVqqQ86cdE9Orfnw0//OyEYpx3jrJuKyQL367WV6ovKlp1oiP3/rjoLriZOE8AEDElU1TddqrVlarCoceOLOEbl98QV5TOEJo0Nvaxx06W1akFGyaM1z+55Is8ROQC/9DQcZljd1clPr5Szcp/3PwXPvuDbUt7zeZ7N2ipppBer2TniPCsFlDE6fPGCyZ5XlEG4kXPke9zvrBxm9btlc2aP9DtzP+EvEC6aaq2aSqaja9uLIaW79nUsYzY5L4zwMASOv00UU8h3nznDy5+6dpS23LivXfXPlLqB6fFip4nPkjFM+WZEkWR+Jn4eGqqtP+wcKqy4uPnNdTJt6LRKJGIN006G2WcYfOritSCt4oyRTPnDFYUhrPYQ6i2y8vpMwvSHrrsVzZC5Czy/9CcbLw7i8fGPpoBAvDUq+zvrvx25YdlQ3aOrqdCZZInIr9oqrZpJt34tLm7P11Q7bUtswCAFyh2ydveMRLtQ8S7FOs9AgVh0vVaX/r/n/8OHjogTOzolkcIJoF0o3W5nIt/KxpX9q+U9k7T7c+YcBdp+j2KUDCsg8SBjoON+q23vO3c7kpe089fuS8HmpSOrqIeoF002SyW+aduPRm9v66gi21LVMAAD/Q7VM/wVbd0rnpxsrTg6Z/2Dj/g586Gul2CCZ9RiDdaG0usPCzpr+l7Ts1fO7xi/ddNuJQM5mHgGidQdSHG3Uve6KIn/NVVCha6XMC6abJZHfuOtP2fvqbdbcsqLo8RmN1fkm3TySE/Ew6ZIzVLZ0v3Fh5OnP6h40vVTWb+sStFBlR9xQrGLaeUte8Va/5w4zBkuLygqR5qULOFJhFPfsJFw836nbvPNP6Vm9C66ONfiEQcK0uxtVdZ9pOuH/KRigyF48asFHGZd1Nt19RQOuW2pZV67+5sldrcznpdibc9BuB9GTrKfX5t+o1UyYNjM+fMzxxbnGy8EGYeX0DJBTZ3XuNAXd9f/Bc+84NtS3v9Ob4brTTZ9cgvjDaCXDkvK5u4pGGWWPf/T6lXmfdG+I0oNHCxS21LQ9k76/Lm3fi0u7+LA7QnwXSkxq1WTP0wJnZ9/+jcdBJlXGj+wJKt0/hxoC7anaebn0obd+p3IWfNR0KNBtKX6Vf3mKRceS87tKR87ryQgVv+Z5JGUtzxdznQn0ORWt10voUS2N1nnnnB+3z67+58rHWFpF3e7SCBOKFGrXZOvTAmWU5ImzbcyOT/vxorqwUAODv4aiAaNDbaNkHuWzEP9lQ27L94Ln2Y0Y7gZRBArrFoqBBb9M+/vFPawbuqU053Nhe1hduvTRW5+cLqi6PSn+zbvKuM21/R+KgBgnED5rNDmL6h+e33Vh5Wrm/XjMPYhhLuO7zuy4b8f+de/zihOz9deO3nlJ/G6Zxox4kkABo0Nssj3/8046Be2pzdp5unQEhE3rI1x8aq/MfC6ouD05/s27arjNtJ33VPUH8FiSQIGg2O8C8E5f+mrj7m/QV1aoHNVZnNd0+XYfjpMq4f+7xiyOz99f9z9ZT6vN0OxStIIH0Ak9O3oPy178du7JaNQkA8B3dPtXrrAfGvvt96sQjDY/tOtNWa7RHW6hXZIEEAomVNc3/Ttz9zfAV1ao7NVbnR37ePgWdR/c6zCdVxu33/6Mxe+iBMzNr1GY1JLv9HiQQiGhtLrCqpvkj+evf3jn3+MVRqk77pyEe0lWvs24b++73yolHGp45cl7Xp85iRAJIICFi15m2upS9p2597F8XxtbrfinWDzNtUftJlXHt/f9oTB164ExZjdoMtZYH4r+gjcIQU9mgrXb/TMsUpW8qSl2dzGff3yPUPtAFgu1wY/v6hVVNrzabHZGYJ6zPgWaQMHHkvP5iyt5TMx7714Vh9TrrDk8FJ3/3QVT76zVLbqw8rZz+4flVSBzhA80gYaayQdtQ2aCdlyPCVu6ZlPGsj+6uw43tzyysatrRbHag4EE6uHr1alh/ioqK6P4vI6KY5cuXh/X7im6xEAgKkEAQCAqQQBAICpBAEAgKkEAQCAqQQBAICpBAEAgKkEAQCAqQQBAICpBAEAgKkEAQCAqQQBAICpBAEAgKkEAQCAqQQBAICpBAEAgKkEAQCAqQQBAICpBAEAgKaEnawOFwuAkJCUtCOUZnZ+dHZrP5NzlzFQrFYgBAnLf+drv9M71e/0n377GxsUlisbg0kDEdDgfR1dXl8GQsaXU4HE1Op/MHh8Nh8ddGbGwsTywWLyJr7+zsfN9sNtf5ay8+Pv5WDMNIEwF0dXXVtrW1He35mkKhKAcACLz1t9vtn+v1+n91/y4SiWaw2ewhZOa1Wu2rLpfL7/+/x+fxGIZN8tbG4/GOAwBOBGKvN9AiEAaDEYdh2LJQjoHjeDsA4DcCwTBsAQBASvKW9QCAXwUSExOTFKiPGIZ5e9kJAPjSaDS+ZTAY3iEI6nocMTExPKpxcRy/AADwSyBxcXFykUh0yP09Julia2trG3b9ixiGPUtRMGgjAOBXgbDZ7BIMw6aS+SAUCtt0Ot1Of/ztJjY29g9knwGLxXKFUyDoFiv0sAAARUKhcH9KSsoVqVS6JCYmJqRl3cC1L5lQIpEcoxCHXa/X32exWC6E0g8ej1fOYrG8Xjmo3hYidwIGCSS8yPh8/trU1NRaDoejCOVAYrF4HYPByCNrt9lsrxgMhmOh9AFcu1tIlUqlpLeMJMSGyJ2A6csCieREa7mJiYnHOBwO2dW9V4jF4gcxDPszWTtBEJ9otdq1oRjbGxwOZxGHw0kL13gw6asCwW0221G6naCCwWAMl8lkf42JgfsnEAgEw923cz3y/17Pxebm5qkul8sOdWBqOAkJCeVhHA8atCzSCYKw2Wy2vcG+37MolJC1m83m2TiO97Y8GiU2m201juNne7zE8Kw3RBwOJzU2NnY0g8EYTXURYjKZkwUCwR0Gg+EjGD6xWKy4hISEtyj+rvb29vaZBEFYYYwXCBiGzYyLi9tosVguhnvs3kCLQHAcN6vV6tnBvFcgEBRiGDaLrJ0giL9rNJq/9MpBP8Bx/GRHRwdl/Q+hUJgTHx9/0D1bkPXh8XgzYQjEPRMpFIoDDAYjn6yP2WyeYzKZPu/tWEHCFYvFuy0Wy2Saxg+KqLrFiomJYSYkJGyh6GLVarXPh9ElSoxGY4Narb6FIIgGsj6xsbETY2JibujtWGKx+Gkmk3kvWbvdbt+n0Wje7O04vYHJZE4SCARe9zcilagSiFwuX8JgMArJ2s1m83NWq/VceL2ixuFw6Do6OuZSdJFgGJbZmzHi4uJy+Xz+qxRdGjUazTO9GQMWCQkJS+n2IRCiRiACgaCAw+G8SNbudDr/3d7evju8XvmH2WyuAgDoyNpjYmKyg7XN4XCSEhMT3bdoHJIu6paWltucTmfY1x3eYDAYxfHx8XfT7Ye/RI1AEhISNnsWwd7o0uv187u6uiKyBrjHL9KHBhiGiYO1nZiYWAEAGEjWrtfr5+E4filY+6FAJBLtCsdmKQyiQiAymWw+g8EYT9Zus9mWWiyWs+H1KmCgi1ehUCxiMBj3kLXbbLa1JpPpfdjjBsBXJK8nicXip8LsS1BEvEDi4uKG8Hi8DWTtBEFUazSaV8LrVVDIyBpwHO8I1JgnCHE9WTtBEB+p1eoXurro2y81GAwrAQBab218Pr+cwWBEfIWziBZITEyMezreQrHp5ero6JhPEJFdLJ/P52dRBP+5v8w/BmKPw+HIhELh6xRdrrS1tdF+hbbb7bbOzs5NJM0DxGLxyjC7FDARLRCJRDKbxWL9kawdx/FXTCYT2TQeMSQkJCynaO7AcdzvJ28xMTFMmUz2AYPBSKfodgNBEO2BeRkaDAZDBdkDCh6PtzguLi4l/F75T8QKhMvlZvN4vM1k7QRB1La2tkb8FUgqlT7JZDJnkLU7nc5PA5kBhULhIiaTSfqo20OSSCRaEIifocLpdFqMRiPZI+YYgUDg7VwQ5ZGAcBKxApFKpa9QhT13dHQs7OrqcobXK/+Ji4tLGzhw4EE+n0/56NlsNv81QNN+7ZnExcWVs9nskARDBopOpztIEMS33towDHuCzWanXveyIzye+SYiF0kymWwGg8GYQtbucDheM5lMVeH16rfweLx5HA7n+oNCLM/GXzYAYAjF2ukXCIKoNhqNfwuRi0K5XL5PpVLdQ+NC/dfvl9FoXCsSibw9UWPK5fI9KpVqUg8/I6YOfMQJhMPhKHk8HlUg449qtZr22wcWizWVxSLblvELXXt7+31dXV0hu51gMBhTeTze7SaTKeTnPkj49QMymUz/JxAIvmYymaOv78RgMG69zs+IuTOIuFsssVi8wT3zkrXr9fr5RKQ/tvKNUaPR3G+xWNSQ7NnIGhISElbFxMRQzmQh5Ndx3bODTqebRfblFwqFERkOH1ECEYlEd7PZ7AfI2l0u1/5wnIILMQ1tbW15ZrP5OAxjDofjoNlsJg3QZDAYIyUSCVUsWCj5zffLYrF873A4vK65WCzWBIFAMDFsnvlJxAjEfWsVHx+/j6ydIIgLarU6IgLugoEgiEaz2bzg559/vslisVyGZPacRqN5tr29fRdBEKfIOvF4vDUcDuf6hTAt6PX6V90fh7c2iUSyk8lkksWU0ULECEQikayiOgRlNBoXO53OzvB61WuuOByOfTqd7haVSjVYo9FscblcZki2DW1tbZMdDkd7V1cXYTQaV1H05UkkkpBmkSHhd2H8Vqu1HsfxCpL+2UKh8KHQu+U/EbFIF4vFf4yNjX2YrN3hcBymOabod9hstmU4jp++7uUugiBsDodDDwBoxnFcH6rxDQbDUxaL5dcASJPJ9HehUPgJg8Hwet7C/fny+fzdnZ2dXh+3hhOtVrs8OTl5OgBAfn0bj8crdzgcB+jx7PfQLhAWi5UgFAoPUvii1mq1j0VapC6O4zW+ThSGcOwNer3+UM/Xurq6utrb2x9PTEw8TxL6HiuVSt+2WCxDQ/nkzB+cTqfRbDa/xuPxfpc4gsFgZGEY9jg9nv0e2m+xJBLJaorcTe4r5SK73R5QZr6+jNPpPNba2rrYW5vFYmm22Ww7KN4+WCwWk2Y7CSd6vX43AKCVpJkqjCas0CoQgUAwBsMw0qA6l8v1scFgeDu8XkU2ZrP5UBfFzl9HR8d6t1bI2vl8/osMBiPQRG7QcblcHe6LH91++II2gcTGxookEslfKXxo1Wg0j9AZrh2N4Djebjabn6XoIlcoFNvC6BIpBoPhgNPp/IZuP6igTSBisfgFAABpJKfRaFyB43hbeL3qG2g0mn0EQXxN1h4bGztbIBD4CngMOe6Ln9FoJD3TEgnQIhA+nz8Kw7A5ZO0EQVR1dHTQmoEj2nFfYKjahULhathJ64LBbDYfJQiimm4/yAj7U6zY2FhMKpUepkgyABgMxpDU1NTG3oxjs9neVavVIS2xEMkYDIZjAoHgIyaTeYe3dhaLdUt8fPwDer3+3fB79188T9+eSExMPEv3mtgbYReIpy6Ir0MypMdTA4B007G/oNPpnkpMTPzePWF4a4+Pj3/NarUex3FcE37v/ovFYvnBZrMdxDAsojYJAR2KZTAYN4d7zP6KxWJRmc1mqtoc0kjJmWsymcKWTDsQIm5KQ8DFZDJtIUucAK4dWHoqLi6uV4nrYOCeRRwOxy66/bgeJJA+Do7jWoPBMJ+iC08sFu+PhAW7Wq12z2YhC88JBvo/FUTI8ZR++w9ZO5PJHCsQCP4UgqEDyuZIEISls7OTKvdy2Lnh6tXwhjjV1NQU6fV6GItwSgiCuIjjeG3P1+Li4u4GAHjN6EcQxDkcx7/v/j0mJiYBw7Bbyew7HI4qp9MJfXEbExPDwTDsfyjG/drpdDYFapfFYqXHxsYWUHRptVgsv4goLi7uLrJDawRB/Ijj+Hfdv3M4nLEMBsNrSiMcx08SBEF6e+eNmJgYPoZht5G1Z2Zm1mdmZpImA4dN2AWCQEQT6BYLgaAACQSBoAAJBIGgAAkEgaAACQSBoAAJBIGgAAkEgaDg/wMAAP//keBfbcwKCyYAAAAASUVORK5CYII=;rounded=0;fillColor=#A8DADC;strokeColor=#457B9D;fontColor=#1D3557;" parent="1" vertex="1"><mxGeometry x="332" y="874.98" width="41" height="41" as="geometry"/></mxCell><mxCell id="NRwvb_30eyufFlA1yozx-123" value="" style="aspect=fixed;html=1;points=[];align=center;image;fontSize=12;image=img/lib/mscae/Docker.svg;strokeColor=#457B9D;strokeWidth=0;fillColor=none;rounded=0;labelBackgroundColor=#F1FAEE;fontColor=#1D3557;" parent="1" vertex="1"><mxGeometry x="373" y="885.98" width="28.07" height="23.02" as="geometry"/></mxCell><mxCell id="d5bQPMBPxZozyy2rsW-Z-123" style="edgeStyle=none;html=1;exitX=0.5;exitY=1;exitDx=0;exitDy=0;entryX=0;entryY=0.5;entryDx=0;entryDy=0;rounded=0;labelBackgroundColor=#F1FAEE;strokeColor=#457B9D;fontColor=#1D3557;" parent="1" source="d5bQPMBPxZozyy2rsW-Z-125" target="d5bQPMBPxZozyy2rsW-Z-127" edge="1"><mxGeometry relative="1" as="geometry"><Array as="points"><mxPoint x="-344" y="706"/></Array></mxGeometry></mxCell><mxCell id="d5bQPMBPxZozyy2rsW-Z-124" value="JWT token" style="edgeLabel;html=1;align=center;verticalAlign=middle;resizable=0;points=[];rounded=0;labelBackgroundColor=#F1FAEE;fontColor=#1D3557;" parent="d5bQPMBPxZozyy2rsW-Z-123" vertex="1" connectable="0"><mxGeometry x="-0.3804" relative="1" as="geometry"><mxPoint y="10" as="offset"/></mxGeometry></mxCell><mxCell id="d5bQPMBPxZozyy2rsW-Z-126" value="" style="aspect=fixed;html=1;points=[];align=center;image;fontSize=12;image=img/lib/mscae/Key.svg;rounded=0;labelBackgroundColor=#F1FAEE;fillColor=#A8DADC;strokeColor=#457B9D;fontColor=#1D3557;" parent="1" vertex="1"><mxGeometry x="-364" y="571" width="20" height="29" as="geometry"/></mxCell><mxCell id="d5bQPMBPxZozyy2rsW-Z-142" style="edgeStyle=orthogonalEdgeStyle;rounded=0;orthogonalLoop=1;jettySize=auto;html=1;labelBackgroundColor=#F1FAEE;strokeColor=#457B9D;fontColor=none;noLabel=1;" parent="1" source="d5bQPMBPxZozyy2rsW-Z-127" edge="1"><mxGeometry relative="1" as="geometry"><mxPoint x="-37" y="705" as="targetPoint"/></mxGeometry></mxCell><mxCell id="116" value="auth_db" style="edgeLabel;html=1;align=center;verticalAlign=middle;resizable=0;points=[];labelBackgroundColor=#2A2927;" parent="d5bQPMBPxZozyy2rsW-Z-142" vertex="1" connectable="0"><mxGeometry x="0.3933" relative="1" as="geometry"><mxPoint x="-17" as="offset"/></mxGeometry></mxCell><mxCell id="d5bQPMBPxZozyy2rsW-Z-127" value="Authentication" style="rounded=0;whiteSpace=wrap;html=1;fillColor=#A8DADC;strokeColor=#457B9D;fontColor=#1D3557;" parent="1" vertex="1"><mxGeometry x="-249" y="675" width="112" height="60" as="geometry"/></mxCell><mxCell id="d5bQPMBPxZozyy2rsW-Z-125" value="Filter" style="whiteSpace=wrap;html=1;rounded=0;fillColor=#A8DADC;strokeColor=#457B9D;fontColor=#4040F7;" parent="1" vertex="1"><mxGeometry x="-388" y="509" width="92" height="27" as="geometry"/></mxCell><mxCell id="d5bQPMBPxZozyy2rsW-Z-132" value="" style="edgeStyle=none;html=1;entryX=0;entryY=0.5;entryDx=0;entryDy=0;startArrow=none;startFill=0;endArrow=none;endFill=1;strokeWidth=3;fillColor=#A8DADC;strokeColor=#457B9D;rounded=0;labelBackgroundColor=#F1FAEE;fontColor=#1D3557;" parent="1" source="72" target="d5bQPMBPxZozyy2rsW-Z-125" edge="1"><mxGeometry relative="1" as="geometry"><mxPoint x="-395.5" y="520.7735674676525" as="sourcePoint"/><mxPoint x="-162" y="522.5" as="targetPoint"/></mxGeometry></mxCell><mxCell id="d5bQPMBPxZozyy2rsW-Z-134" style="edgeStyle=none;html=1;exitX=1;exitY=0.5;exitDx=0;exitDy=0;entryX=0;entryY=0.5;entryDx=0;entryDy=0;rounded=0;labelBackgroundColor=#F1FAEE;strokeColor=#457B9D;fontColor=#1D3557;" parent="1" edge="1"><mxGeometry relative="1" as="geometry"><mxPoint x="-296" y="523" as="sourcePoint"/><mxPoint x="-205" y="521.9999999999999" as="targetPoint"/></mxGeometry></mxCell><mxCell id="d5bQPMBPxZozyy2rsW-Z-135" value="Forward" style="edgeLabel;html=1;align=center;verticalAlign=middle;resizable=0;points=[];rounded=0;labelBackgroundColor=#F1FAEE;fontColor=#1D3557;" parent="d5bQPMBPxZozyy2rsW-Z-134" vertex="1" connectable="0"><mxGeometry x="-0.2473" relative="1" as="geometry"><mxPoint x="12" as="offset"/></mxGeometry></mxCell><mxCell id="d5bQPMBPxZozyy2rsW-Z-137" style="edgeStyle=none;html=1;startArrow=none;startFill=0;endArrow=none;endFill=0;strokeWidth=1;shape=link;rounded=0;labelBackgroundColor=#F1FAEE;strokeColor=#457B9D;fontColor=#1D3557;entryX=0;entryY=0.5;entryDx=0;entryDy=0;entryPerimeter=0;" parent="1" source="107" target="113" edge="1"><mxGeometry relative="1" as="geometry"><mxPoint x="214" y="433" as="sourcePoint"/><mxPoint x="404" y="363" as="targetPoint"/></mxGeometry></mxCell><mxCell id="118" value="workload" style="edgeLabel;html=1;align=center;verticalAlign=middle;resizable=0;points=[];fontSize=8;fontColor=#FFFFFF;" parent="d5bQPMBPxZozyy2rsW-Z-137" vertex="1" connectable="0"><mxGeometry x="0.2971" y="-3" relative="1" as="geometry"><mxPoint as="offset"/></mxGeometry></mxCell><mxCell id="d5bQPMBPxZozyy2rsW-Z-139" style="edgeStyle=none;html=1;startArrow=none;startFill=0;endArrow=classic;endFill=1;strokeWidth=3;fillColor=#A8DADC;strokeColor=#457B9D;exitX=0.105;exitY=0.473;exitDx=0;exitDy=0;exitPerimeter=0;rounded=0;labelBackgroundColor=#F1FAEE;fontColor=#1D3557;" parent="1" edge="1"><mxGeometry relative="1" as="geometry"><mxPoint x="-177.99500000000018" y="517" as="sourcePoint"/><mxPoint x="231" y="368" as="targetPoint"/></mxGeometry></mxCell><mxCell id="d5bQPMBPxZozyy2rsW-Z-140" value="treining duration" style="edgeLabel;html=1;align=center;verticalAlign=middle;resizable=0;points=[];rounded=0;labelBackgroundColor=#F1FAEE;fontColor=#1D3557;" parent="d5bQPMBPxZozyy2rsW-Z-139" vertex="1" connectable="0"><mxGeometry x="0.0489" y="1" relative="1" as="geometry"><mxPoint y="-1" as="offset"/></mxGeometry></mxCell><mxCell id="111" value="" style="shape=cylinder3;whiteSpace=wrap;html=1;boundedLbl=1;backgroundOutline=1;size=15;rounded=0;fillColor=#A8DADC;strokeColor=#457B9D;fontColor=#1D3557;" parent="1" vertex="1"><mxGeometry x="-34" y="665" width="60" height="80" as="geometry"/></mxCell><mxCell id="112" value="" style="shape=image;verticalLabelPosition=bottom;labelBackgroundColor=#F1FAEE;verticalAlign=top;aspect=fixed;imageAspect=0;image=https://upload.wikimedia.org/wikipedia/commons/thumb/2/29/Postgresql_elephant.svg/1200px-Postgresql_elephant.svg.png;rounded=0;fillColor=#A8DADC;strokeColor=#457B9D;fontColor=#1D3557;" parent="1" vertex="1"><mxGeometry x="-18.54000000000002" y="705" width="29.07" height="30" as="geometry"/></mxCell><mxCell id="113" value="" style="shape=cylinder3;whiteSpace=wrap;html=1;boundedLbl=1;backgroundOutline=1;size=15;rounded=0;fillColor=#A8DADC;strokeColor=#457B9D;fontColor=#1D3557;" parent="1" vertex="1"><mxGeometry x="422" y="324" width="60" height="80" as="geometry"/></mxCell><mxCell id="114" value="" style="shape=image;verticalLabelPosition=bottom;labelBackgroundColor=#F1FAEE;verticalAlign=top;aspect=fixed;imageAspect=0;image=https://upload.wikimedia.org/wikipedia/commons/thumb/2/29/Postgresql_elephant.svg/1200px-Postgresql_elephant.svg.png;rounded=0;fillColor=#A8DADC;strokeColor=#457B9D;fontColor=#1D3557;" parent="1" vertex="1"><mxGeometry x="437.46" y="361" width="29.07" height="30" as="geometry"/></mxCell></root></mxGraphModel></diagram></mxfile>